<?xml version="1.0" encoding="UTF-8" standalone="no"?>
<!-- Created with Inkscape (http://www.inkscape.org/) -->

<svg
   xmlns:dc="http://purl.org/dc/elements/1.1/"
   xmlns:cc="http://creativecommons.org/ns#"
   xmlns:rdf="http://www.w3.org/1999/02/22-rdf-syntax-ns#"
   xmlns:svg="http://www.w3.org/2000/svg"
   xmlns="http://www.w3.org/2000/svg"
   xmlns:sodipodi="http://sodipodi.sourceforge.net/DTD/sodipodi-0.dtd"
   xmlns:inkscape="http://www.inkscape.org/namespaces/inkscape"
   width="42.333332mm"
   height="42.333267mm"
   viewBox="0 0 42.333332 42.333268"
   version="1.1"
   id="svg8"
   inkscape:version="0.92.2 2405546, 2018-03-11"
   sodipodi:docname="logo.svg">
  <defs
     id="defs2" />
  <sodipodi:namedview
     id="base"
     pagecolor="#ffffff"
     bordercolor="#666666"
     borderopacity="1.0"
     inkscape:pageopacity="0.0"
     inkscape:pageshadow="2"
     inkscape:zoom="2.030992"
     inkscape:cx="90.908468"
     inkscape:cy="111.70765"
     inkscape:document-units="mm"
     inkscape:current-layer="g4852"
     showgrid="true"
     inkscape:snap-bbox="true"
     inkscape:snap-bbox-midpoints="true"
     inkscape:snap-nodes="true"
     inkscape:snap-others="true"
     inkscape:snap-object-midpoints="true"
     showguides="true"
     inkscape:guide-bbox="true"
     inkscape:bbox-nodes="true"
     inkscape:window-width="1366"
     inkscape:window-height="713"
     inkscape:window-x="0"
     inkscape:window-y="31"
     inkscape:window-maximized="1"
     inkscape:object-paths="true">
    <inkscape:grid
       type="xygrid"
       id="grid3713"
       originx="-12.7"
       originy="-33.866735" />
  </sodipodi:namedview>
  <metadata
     id="metadata5">
    <rdf:RDF>
      <cc:Work
         rdf:about="">
        <dc:format>image/svg+xml</dc:format>
        <dc:type
           rdf:resource="http://purl.org/dc/dcmitype/StillImage" />
        <dc:title></dc:title>
      </cc:Work>
    </rdf:RDF>
  </metadata>
  <g
     style="display:inline"
     inkscape:label="Logo"
     id="g4852"
     inkscape:groupmode="layer"
     transform="translate(-12.7,-220.8)"
     sodipodi:insensitive="true">
    <path
       sodipodi:nodetypes="sssssss"
       inkscape:connector-curvature="0"
       id="path4841"
       d="m 23.037909,250.2112 c -1.47286,-0.37566 -1.243062,-3.39624 0.249374,-3.68446 1.076824,-0.20796 1.976407,-0.35884 2.893662,-1.77777 1.633471,-2.52685 5.116794,-0.0425 4.384579,1.44025 -1.057436,2.14131 0.254104,3.75568 0.479666,5.01493 0.33636,1.8778 -3.158282,3.77483 -4.729338,1.1763 -0.593574,-0.98177 -1.950755,-1.83075 -3.277943,-2.16925 z"
       style="display:inline;fill:#000000;fill-rule:evenodd;stroke:none;stroke-width:0.26458332px;stroke-linecap:butt;stroke-linejoin:miter;stroke-opacity:1"
       inkscape:export-xdpi="117.13"
       inkscape:export-ydpi="117.13" />
    <path
       style="display:inline;fill:#000000;fill-opacity:1;stroke:none;stroke-width:0.1;stroke-miterlimit:4;stroke-dasharray:none"
       d="m 45.508333,263.13327 c 0.586316,0 1.058333,-0.47202 1.058333,-1.05834 v -31.74999 c 0,-0.58631 -0.472017,-1.05833 -1.058333,-1.05833 h -31.75 c -0.586316,0 -1.058333,0.47202 -1.058333,1.05833 v 31.74999 c 0,0.58632 0.472017,1.05834 1.058333,1.05834 z m 0,-0.52917 h -31.75 c -0.293158,0 -0.529166,-0.23601 -0.529166,-0.52917 v -31.74999 c 0,-0.29316 0.236008,-0.52916 0.529166,-0.52916 h 31.75 c 0.293158,0 0.529166,0.236 0.529166,0.52916 v 31.74999 c 0,0.29316 -0.236008,0.52917 -0.529166,0.52917 z m -5.291667,-0.52917 v -4.23333 h -4.233333 v 4.23333 z m -8.466666,0 v -4.23333 h -4.233334 v 4.23333 z m -8.466667,0 V 257.8416 H 19.05 v 4.23333 z m 22.225,-5.29166 v -4.23334 H 41.275 v 4.23334 z m -5.291667,0 v -8.46666 h -12.7 v 8.46666 z m -13.229166,0 V 235.61661 H 19.05 v 21.16666 z m -8.995833,0 v -4.23334 h -4.233334 v 4.23334 z M 39.6875,256.2541 H 28.045833 v -7.40832 H 39.6875 Z m -13.229167,0 h -6.879167 v -20.10832 h 6.879167 z m 19.05,-7.93749 v -4.23333 H 41.275 v 4.23333 z m -27.516666,0 v -4.23333 h -4.233334 v 4.23333 z m 22.224999,-0.52917 v -12.17083 h -12.7 v 12.17083 z M 39.6875,247.25828 H 28.045833 v -11.1125 H 39.6875 Z m 5.820833,-7.40834 v -4.23333 H 41.275 v 4.23333 z m -27.516666,0 v -4.23333 h -4.233334 v 4.23333 z m 22.224999,-5.29166 v -4.23334 h -4.233333 v 4.23334 z m -8.466666,0 v -4.23334 h -4.233334 v 4.23334 z m -8.466667,0 v -4.23334 H 19.05 v 4.23334 z"
       id="rect4822"
       inkscape:connector-curvature="0"
       inkscape:export-xdpi="117.13"
       inkscape:export-ydpi="117.13" />
    <g
       transform="matrix(1.25,0,0,1.25,12.700001,-39.324941)"
       id="g4850"
       inkscape:export-xdpi="117.13"
       inkscape:export-ydpi="117.13">
      <path
         inkscape:connector-curvature="0"
         style="fill:#000000;fill-rule:evenodd;stroke:none;stroke-width:0.99999994px;stroke-linecap:butt;stroke-linejoin:miter;stroke-opacity:1"
         d="m 96,786.51953 -32,48 c 0,2.51842 0.794829,5.03584 2.130859,7.30469 L 57,855.51953 c 4e-6,0.99999 1.000005,1.99996 2,2 l 13.695312,-9.13086 c 2.268842,1.33603 4.78627,2.13086 7.304688,2.13086 l 48,-32 z"
         transform="scale(0.26458333)"
         id="path4846" />
      <path
         style="fill:#ffffff;fill-rule:evenodd;stroke:none;stroke-width:0.26458332px;stroke-linecap:butt;stroke-linejoin:miter;stroke-opacity:1"
         d="m 17.727082,220.8 7.408333,-11.1125 7.14375,7.14375 -11.1125,7.40834 c -2.116667,0 -3.439583,-1.32292 -3.439583,-3.43959 z"
         id="path4848"
         inkscape:connector-curvature="0"
         sodipodi:nodetypes="ccccc" />
    </g>
  </g>
</svg>
